<svg xmlns="http://www.w3.org/2000/svg" width="256" height="256" stroke="#000" stroke-width=".004" viewBox="0 0 359.85 359.85">
  <g id="SVGRepo_iconCarrier" transform="translate(0, 80)">
    <defs>
      <style>
        .a{fill:#e44848}.c{fill:#211715}.d{fill:#ffc531}
      </style>
    </defs>
    <path d="M122.212 2.4c-17.5 0-28.342 5.413-37.244 14.82-5.889 6.222-18.111 19.444-23.615 26.014-3.031 3.618-5.6 9.039-3.352 12.87 1.889 3.222 3.893 7.064 10.189 7.064 6.02 0 40.126-.1 43.906-.1-.007.084-.006.123-.006.123.011 3.93.031 10.073.057 17.63h-.057a5.826 5.826 0 0 0-5.852-5.813c-18.257.079-45.673.451-59.841.451a8.942 8.942 0 0 0-3.8.748 10.292 10.292 0 0 0-3.725 3.3c-8.606 11.634-22.68 32.523-30.414 45.643a20.749 20.749 0 0 0-3.331 10.383c-.05 12.663-.231 22.291-.342 38.211a2 2 0 0 0-2.3 1.976c-.006 3.485-.041 9.429-.069 14.505a8 8 0 0 0 7.961 8.04c8.249.038 30.306.1 31.589.1l50.255.177c10.024 0 116.194-.09 127.852-.082l49.121.082c8.17 0 51.7-.025 68.8 0a7.988 7.988 0 0 0 8-8.008c-.011-5.55 0-18.362 0-18.362 0-37.885-.206-128.38-.222-165.124a3.987 3.987 0 0 0-3.989-3.991C297.619 3.023 149.719 2.4 122.56 2.4" class="a"/>
    <path d="M112.09 80.82a5.826 5.826 0 0 0-5.852-5.813c-10.67.047-24.468.193-36.922.306a132.209 132.209 0 0 1-5.063-12.779 11.357 11.357 0 0 0 3.937.634c6.02 0 40.13-.1 43.906-.1-.007.1-.006.123-.006.123.015 5.521.049 5.8.091 17.841" style="fill:#bdbdbd"/>
    <path d="M328.273 84.375q-10.764.021-21.527.059l-12.235.034-5.045.012c-1.678 0-3.543-.225-5.021.717-2.773 1.768-2.008 6.036-2.016 8.883q-.013 4.914-.03 9.829-.039 12.121-.082 24.243-.038 10.914-.071 21.83 0 1.959-.01 3.919c0 1.784-.14 3.6 1.183 5.016 1.434 1.534 3.359 1.4 5.267 1.394l4.641-.016 25.079-.089c3.419-.01 6.961.246 10.367-.051a4.44 4.44 0 0 0 3.36-1.979c.81-1.27.712-2.685.711-4.126q0-4.292-.008-8.581c-.028-18.71-.126-37.42-.163-56.131-.006-2.746-1.58-4.742-4.4-4.963a2.421 2.421 0 0 0-2.4 2.4 2.448 2.448 0 0 0 2.4 2.4 1.4 1.4 0 0 1-.291-.119c-.378-.441-.009-.343-.11-.2s0 .7 0 .878v1.96q.006 2.334.014 4.667l.042 11.848q.052 15.078.089 30.156.016 7.95.021 15.9v1.085q-.074.793.1.14c.359-.145.344-.031.085-.11a8.8 8.8 0 0 0-2.217 0l-4.984.012q-11.88.035-23.76.083l-9.395.033a7.147 7.147 0 0 0-1.244-.011c.3-.46.219.917.4.187a4.375 4.375 0 0 0 0-.9q0-1.74.008-3.481.025-9.9.062-19.8.07-20.5.133-41a4.549 4.549 0 0 0 0-1.482c-.115-.22.031-.088-.113.153-.218.365-.421 0-.117.1a2.431 2.431 0 0 0 .559 0q2.041 0 4.082-.009l10.774-.029 22.2-.063 3.646-.008c3.104.004 3.11-4.796.016-4.79Z" class="c"/>
    <path d="M97.579 90.59a3.766 3.766 0 0 0-3.768-3.748c-11.15-.012-27.447-.067-37.266-.067a9.909 9.909 0 0 0-4.022.667 9.96 9.96 0 0 0-3.505 3.386c-5.84 7.868-15.45 22.3-23.224 34.56a5.841 5.841 0 0 0 6.245 8.82c20.188-4.646 46.36-10.541 62.857-14.525A3.667 3.667 0 0 0 97.7 116.1l-.121-25.51Z" class="d"/>
    <path d="M348.27 43.381a11.023 11.023 0 0 1 3.49 1.378c.789.577.848 1.87.859 2.891.008.661 0 1.322 0 1.982q0 3.51.007 7.02.011 11.546.025 23.09l.034 29.68.029 29.251q.011 10.944.015 21.888v1.839c0 3.089 4.8 3.094 4.8 0q0-10.507-.012-21.016-.013-14.631-.029-29.262l-.035-30.472-.027-24.115q0-3.747-.006-7.493c0-3.716-.013-7.592-3.679-9.7a20.989 20.989 0 0 0-4.2-1.593c-2.951-.936-4.214 3.7-1.276 4.629Z" class="c"/>
    <path d="M348.764 63.775c2.894 0 5.788-.021 8.681-.021a2.4 2.4 0 1 0 0-4.8c-2.893 0-5.787.021-8.681.021a2.4 2.4 0 0 0 0 4.8ZM348.764 77.182c2.894 0 5.788-.021 8.681-.021a2.4 2.4 0 1 0 0-4.8c-2.893 0-5.787.021-8.681.021a2.4 2.4 0 0 0 0 4.8ZM280.082 105.368c0 1.09.021 2.18.021 3.271a2.482 2.482 0 0 0 .7 1.7 2.678 2.678 0 0 0 1.7.7 2.426 2.426 0 0 0 1.7-.7 2.491 2.491 0 0 0 .7-1.7c0-1.091-.02-2.181-.021-3.271a2.471 2.471 0 0 0-.7-1.7 2.658 2.658 0 0 0-1.7-.7 2.423 2.423 0 0 0-1.7.7 2.494 2.494 0 0 0-.7 1.7ZM280.082 136.7c0 1.09.021 2.181.021 3.271a2.48 2.48 0 0 0 .7 1.7 2.678 2.678 0 0 0 1.7.7 2.426 2.426 0 0 0 1.7-.7 2.489 2.489 0 0 0 .7-1.7c0-1.09-.02-2.181-.021-3.271a2.473 2.473 0 0 0-.7-1.7 2.672 2.672 0 0 0-1.7-.7 2.427 2.427 0 0 0-1.7.7 2.494 2.494 0 0 0-.7 1.7ZM65.321 169.217a27.641 27.641 0 0 0-28.188 28.015c0 17.487 10.9 28.54 28.189 28.54 17.688 0 28.189-11.053 28.189-28.54 0-15.209-11.581-28.015-28.19-28.015Z" class="c"/>
    <path d="M65.322 188.112a9.171 9.171 0 0 0-9.353 9.3c0 5.8 3.618 9.47 9.353 9.47 5.869 0 9.354-3.667 9.354-9.47a9.163 9.163 0 0 0-9.354-9.3Z" class="a"/>
    <path d="M245.624 169.217a27.641 27.641 0 0 0-28.188 28.015c0 17.487 10.9 28.54 28.189 28.54 17.688 0 28.189-11.053 28.189-28.54 0-15.209-11.581-28.015-28.19-28.015Z" class="c"/>
    <path d="M245.625 188.112a9.171 9.171 0 0 0-9.353 9.3c0 5.8 3.617 9.47 9.353 9.47 5.869 0 9.354-3.667 9.354-9.47a9.163 9.163 0 0 0-9.354-9.3Z" class="a"/>
    <path d="M122.212 0a61.364 61.364 0 0 0-19.7 2.91 46.3 46.3 0 0 0-14.844 8.45c-4.045 3.4-7.536 7.488-11.121 11.36-4.179 4.513-8.335 9.051-12.414 13.655-3.966 4.478-8.64 9.128-9.317 15.375-.327 3.016.947 5.549 2.583 7.974a12.751 12.751 0 0 0 6.248 5.134c3.266 1.185 7.318.707 10.756.7q6.657-.014 13.316-.032 11.758-.03 23.517-.058h.958c3.089 0 3.094-4.8 0-4.8-14.313 0-28.625.085-42.938.1a9.732 9.732 0 0 1-5.374-1.076c-1.65-1.024-2.625-2.749-3.679-4.583-1.316-2.291-.365-4.99.817-7.15a35.257 35.257 0 0 1 4.654-6.082c3.806-4.361 7.707-8.64 11.626-12.9 3.46-3.762 6.876-7.6 10.492-11.214a41.943 41.943 0 0 1 14.127-9.536 55.414 55.414 0 0 1 20.3-3.426c3.088-.008 3.094-4.808 0-4.8ZM7.187 173.215c.089-12.427.238-24.853.337-37.279.046-5.807 3.6-10.655 6.542-15.408 3.113-5.024 6.327-9.985 9.592-14.911s6.6-9.841 9.989-14.7q2.277-3.264 4.6-6.5c1.354-1.881 2.662-4.227 4.579-5.584 2-1.417 4.832-.978 7.156-.985q3.761-.013 7.521-.041 8.741-.062 17.481-.15 10.261-.1 20.523-.186 4.695-.036 9.389-.061c1.263-.007 2.48-.1 3.53.74a3.513 3.513 0 0 1 1.265 2.666c.1 3.081 4.9 3.1 4.8 0a8.332 8.332 0 0 0-4.767-7.436c-2.652-1.2-5.836-.767-8.674-.748q-9.441.06-18.882.157c-11.572.108-23.144.251-34.717.264-3.466 0-6.508.718-9.007 3.255a55.074 55.074 0 0 0-5.106 6.751q-5.154 7.2-10.1 14.558-5.328 7.892-10.452 15.919-2.26 3.564-4.458 7.164a48.638 48.638 0 0 0-4.393 8.356c-1.335 3.623-1.209 7.352-1.235 11.15q-.033 5.013-.089 10.027c-.081 7.661-.169 15.321-.224 22.982-.023 3.089 4.777 3.092 4.8 0Z" class="c"/>
    <path d="M109.69 63.19q.027 10.109.066 20.216l.106 30.187q.06 16.635.116 33.27.051 14.939.095 29.878.03 9.946.046 19.893v1.474c0 3.089 4.8 3.094 4.8 0q0-9.078-.037-18.157-.041-14.562-.091-29.123-.055-16.6-.114-33.21-.056-15.406-.109-30.813-.039-10.913-.073-21.825 0-.894-.005-1.79c-.009-3.088-4.809-3.094-4.8 0ZM99.979 90.59a6.331 6.331 0 0 0-2.534-4.939 7.63 7.63 0 0 0-4.848-1.21q-5.272-.007-10.544-.02L60.6 84.378c-3.361 0-7.344-.5-10.234 1.562-2.57 1.833-4.323 4.88-6.133 7.425-4.238 5.96-8.31 12.039-12.328 18.149q-3.274 4.981-6.486 10.005c-1.86 2.91-3.71 5.745-2.6 9.339a8.352 8.352 0 0 0 7 5.843 15.3 15.3 0 0 0 5.143-.7q2.646-.608 5.29-1.213c14.811-3.392 29.631-6.746 44.425-10.211q4.651-1.089 9.3-2.2c1.7-.408 3.336-.811 4.549-2.174a6.93 6.93 0 0 0 1.58-4.948l-.1-20.7-.019-3.957c-.014-3.088-4.814-3.094-4.8 0l.085 17.779.023 4.758c0 1.015.36 2.778-.165 3.641-.509.837-2.025.88-2.909 1.092q-2.086.5-4.174.994c-13.281 3.142-26.59 6.165-39.9 9.2q-5.083 1.161-10.166 2.325l-4.87 1.117a6.4 6.4 0 0 1-3.531.281 3.485 3.485 0 0 1-2.1-4.435 23.507 23.507 0 0 1 2.42-3.95q1.454-2.273 2.922-4.536 5.745-8.859 11.706-17.578a372.246 372.246 0 0 1 5.07-7.215c.748-1.036 1.472-2.115 2.313-3.078a4.7 4.7 0 0 1 3.625-1.8c2.868-.162 5.781-.024 8.653-.019q4.937.007 9.873.02l10.2.023c3.115.006 6.261-.118 9.373.016a1.407 1.407 0 0 1 1.539 1.348c.157 3.084 4.958 3.102 4.805.009ZM343.568 171q.006 5.574.017 11.147l.012 6.259c0 1.645.154 3.284-.648 4.781a5.623 5.623 0 0 1-3.565 2.8 16.338 16.338 0 0 1-4.006.166q-4.387 0-8.776-.006-21.237-.009-42.472 0h-14.934c-3.089 0-3.094 4.8 0 4.8q17.385 0 34.772-.01h22.351q4.474 0 8.948.006a26.768 26.768 0 0 0 4.737-.2 10.211 10.211 0 0 0 5.58-3.078c3.467-3.762 2.813-8.756 2.805-13.478q-.012-6.6-.021-13.195c0-3.088-4.8-3.094-4.8 0ZM106.412 32.358l38.19.019 50.038.027 52.329.029q22.761.014 45.521.024 14.739.008 29.478.011h2.074c3.088 0 3.094-4.8 0-4.8q-13.428 0-26.856-.009-22.095-.009-44.186-.022l-52-.029-50.683-.028-40.133-.02h-3.771c-3.088 0-3.093 4.8 0 4.8Z" class="c"/>
    <path d="M284.635 176.129q18.753 0 37.508.031h8.121c3.089 0 3.094-4.8 0-4.8q-19.467 0-38.935-.032h-6.694c-3.089 0-3.094 4.8 0 4.8ZM122.56 4.8q10.585 0 21.171.042 17.022.048 34.045.108l41.525.144 43.616.151q20.157.067 40.313.129 15.81.048 31.62.079 2.938.006 5.876.009c1.075 0 2.283-.062 2.611 1.222a16.19 16.19 0 0 1 .044 3.646q.006 8.9.018 17.805.03 22.705.071 45.412l.08 49.169q.031 20.877.048 41.753v7.709c0 3.088 4.8 3.093 4.8 0q0-19.307-.035-38.613-.034-24.483-.078-48.964l-.076-47.524q-.015-9.858-.025-19.716 0-4.112-.006-8.223c0-1.8.086-3.584-.82-5.216A6.568 6.568 0 0 0 341.64.663C332.214.409 322.748.629 313.318.6Q293.972.551 274.627.484 252.852.412 231.075.335l-42.907-.15q-18.377-.063-36.754-.12Q138.837.026 126.26 0h-3.7c-3.088 0-3.093 4.8 0 4.8ZM92.223 200.948q7.717 0 15.435-.009l28.9-.021 33.868-.025 30.334-.02q9.15-.006 18.3-.008h1.015c3.089 0 3.093-4.8 0-4.8q-8.1-.006-16.2 0-14.65.007-29.3.019l-33.891.025-29.984.022-17.575.011h-.9c-3.089 0-3.094 4.8 0 4.8Z" class="c"/>
    <path d="M239.145 63.058c-27.777.223-67.294.378-79.819.4a2.19 2.19 0 0 0-2.192 2.184c-.048 8.35-.294 30.551-.317 45.947a2.193 2.193 0 0 0 2.2 2.2c13.787-.032 61.909-.3 80.461-.322a2.19 2.19 0 0 0 2.192-2.195c-.021-15.389-.247-38.715-.309-46.037a2.194 2.194 0 0 0-2.216-2.177Z" class="d"/>
    <path d="M239.145 60.658q-31.687.253-63.376.349-5.712.021-11.422.037l-4.282.01c-2.834 0-5.182 1.546-5.331 4.585-.184 3.75-.058 7.543-.09 11.3q-.069 7.921-.131 15.843-.061 8.171-.091 16.341a13.857 13.857 0 0 0 .173 3.742 4.661 4.661 0 0 0 3.148 3.148 15.945 15.945 0 0 0 4.236.169q10.986-.036 21.972-.094 26.093-.12 52.186-.213c1.746 0 3.9.3 5.48-.538 2.767-1.469 2.456-4.456 2.448-7.123q-.022-7.881-.08-15.761-.09-13.275-.217-26.549c-.025-2.875-1.62-5.049-4.623-5.243a2.4 2.4 0 0 0 0 4.8c-.143-.01-.184-.228-.182-.224a3.669 3.669 0 0 1 .007.845l.018 2.03q.022 2.622.046 5.243.06 6.874.113 13.748.057 7.745.1 15.491.016 3.585.025 7.172c0 .5.012 1.006 0 1.508 0-.073.133-.213.208-.2a19.532 19.532 0 0 0-2.137 0q-24.306.046-48.614.194-11.318.052-22.636.1l-4.114.015a13.314 13.314 0 0 1-2.95-.016c.394.106.188.4.189-.471v-1.592q0-1.93.014-3.86.017-3.864.042-7.729c.062-9.423.155-18.845.229-28.268l.017-2.275c0-.349 0-.7.007-1.047.022-.835.1-.214-.186-.242.952.1 2.226-.028 3.269-.031q5.059-.012 10.117-.03 29.594-.1 59.186-.306 3.613-.025 7.228-.054c3.092-.029 3.099-4.829.004-4.804Z" class="c"/>
    <path d="M196.853 113.453c12.144-10.231 24.365-20.391 36.8-30.266q1.218-.966 2.441-1.926l1.139-.89.366-.284.359-.279q-.286.222.04-.03c1.175-.9 2.355-1.8 3.557-2.667a2.468 2.468 0 0 0 .861-3.283 2.419 2.419 0 0 0-3.284-.861c-5.9 4.253-11.52 8.911-17.161 13.494q-10.314 8.382-20.515 16.9-4.006 3.338-8 6.694a2.42 2.42 0 0 0 0 3.394 2.45 2.45 0 0 0 3.394 0ZM229.456 103.377c4.442-3.443 8.791-7 13.234-10.444a2.4 2.4 0 0 0 0-3.4 2.476 2.476 0 0 0-3.394 0c-4.443 3.441-8.792 7-13.234 10.444a2.4 2.4 0 0 0 0 3.395 2.477 2.477 0 0 0 3.394 0ZM62.289 64.194a142.12 142.12 0 0 0 4.744 11.867 2.409 2.409 0 0 0 3.283.861 2.47 2.47 0 0 0 .861-3.284q-.626-1.386-1.222-2.784c-.224-.521.1.252-.1-.227l-.332-.8q-.269-.654-.529-1.309-1.1-2.775-2.08-5.6a2.4 2.4 0 0 0-4.629 1.276ZM27.153 171.439c-6.93 0-13.86-.083-20.79-.1-2.118-.007-4.281-.009-5.562 2-.95 1.489-.715 3.356-.722 5.043-.015 3.949-.12 7.906-.061 11.854a10.608 10.608 0 0 0 4.882 8.851c2.505 1.6 5.289 1.582 8.139 1.593q8.249.033 16.5.056c4.143.013 8.287.033 12.43.035 3.088 0 3.093-4.8 0-4.8-8.147 0-16.293-.045-24.439-.074l-6.471-.025c-2.4-.011-4.557-.877-5.678-3.144a8.461 8.461 0 0 1-.554-4l.031-5.7.024-5.189c0-.436.22-1.592.006-1.962-.157-.271.088 0-.1.145a1.8 1.8 0 0 0-.291.127 10.167 10.167 0 0 0 1.031-.013c7.21.02 14.42.106 21.63.108 3.089 0 3.094-4.8 0-4.8ZM99.069 139.927a5.525 5.525 0 0 0-2.985-4.864c-1.739-.874-3.858-.592-5.746-.592h-6.349c-1.786 0-3.936-.306-5.637.327a5.552 5.552 0 0 0-1.167 9.731c1.659 1.14 3.711.913 5.618.913h9.219a10.7 10.7 0 0 0 3.2-.235 5.541 5.541 0 0 0 3.847-5.28c.046-2.575-3.954-2.575-4 0a1.454 1.454 0 0 1-1.3 1.509 33.341 33.341 0 0 1-4.158.006H80.7c-.892 0-1.734-.179-1.925-1.2a1.485 1.485 0 0 1 .886-1.68 4.748 4.748 0 0 1 1.606-.094h11.847c.992 0 1.931.286 1.955 1.456.055 2.576 4.055 2.582 4 .003ZM128.19 174.862q13.584 0 27.168.02 19.337.017 38.673.031 7.375 0 14.752.007c3.088 0 3.093-4.8 0-4.8q-15.529 0-31.059-.02l-37.581-.031q-5.976 0-11.953-.007c-3.089 0-3.094 4.8 0 4.8Z" class="c"/>
    <path d="M5.669 154.243c2.384 0 4.768.043 7.151.072.282 0 .564 0 .845.01.145 0 .289.005.434.015-.163-.014-.162 0 0 .03a1.3 1.3 0 0 1 .552.329c.347.367 0-.145.216.317-.152-.322.1.34.109.378-.057-.323-.01.207-.009.3 0 .314-.007.629-.011.943-.059 4.939-.164 9.877-.245 14.815-.05 3.09 4.75 3.091 4.8 0q.069-4.14.146-8.28.038-2.208.071-4.414a27.6 27.6 0 0 0-.036-4.067 6.043 6.043 0 0 0-5.862-5.166c-2.711-.127-5.449-.081-8.163-.084-3.089 0-3.094 4.8 0 4.8Z" class="c"/>
  </g>
</svg>
